<?xml version="1.0" standalone="no"?>
<!DOCTYPE svg PUBLIC "-//W3C//DTD SVG 20010904//EN"
 "http://www.w3.org/TR/2001/REC-SVG-20010904/DTD/svg10.dtd">
<svg version="1.0" xmlns="http://www.w3.org/2000/svg"
 width="256.000000pt" height="256.000000pt" viewBox="0 0 256.000000 256.000000"
 preserveAspectRatio="xMidYMid meet">
<metadata>
Created by potrace 1.11, written by Peter Selinger 2001-2013
</metadata>
<g transform="translate(0.000000,256.000000) scale(0.100000,-0.100000)"
fill="#000000" stroke="none">
<path d="M890 1975 c-158 -35 -311 -154 -399 -309 -97 -170 -163 -392 -187
-621 -3 -27 -7 -63 -9 -80 -2 -16 -7 -115 -11 -218 l-7 -188 63 3 64 3 3 142
c1 78 5 152 7 165 3 12 5 40 5 60 l1 37 42 -28 c69 -46 133 -64 243 -67 131
-4 234 23 303 78 8 7 12 6 13 -3 0 -8 3 -32 5 -54 2 -22 6 -105 7 -185 l4
-145 63 -3 63 -3 -7 189 c-4 104 -8 200 -11 213 -2 13 -6 53 -10 89 -16 172
-67 367 -123 474 -66 126 -175 206 -279 206 l-36 0 22 24 c61 65 209 114 331
110 242 -7 387 -99 494 -312 27 -53 70 -202 80 -277 3 -22 8 -58 11 -79 3 -22
8 -103 10 -180 6 -170 17 -234 51 -303 48 -98 142 -150 271 -151 178 -1 290
109 309 303 l6 65 -63 0 -64 0 -2 -50 c-2 -69 -42 -149 -85 -173 -49 -26 -137
-28 -192 -4 -38 16 -50 29 -71 71 -26 53 -27 60 -40 311 -25 500 -202 795
-530 880 -86 23 -265 28 -345 10z m-93 -389 c88 -45 164 -205 177 -373 6 -78
-6 -122 -43 -157 -87 -83 -336 -79 -422 6 -17 17 -35 42 -40 56 -21 55 23 271
72 358 66 115 164 158 256 110z"/>
<path d="M1323 1261 c-39 -24 -63 -68 -63 -115 0 -25 9 -44 33 -70 41 -43 78
-53 131 -35 125 44 107 218 -25 234 -34 5 -51 1 -76 -14z"/>
</g>
</svg>
