<svg width="524" height="82" viewBox="0 0 524 82" xmlns="http://www.w3.org/2000/svg"><path d="M48.66 64.428c1.68 0 2.968-.616 3.864-1.848-.84-2.352-1.652-6.216-2.436-11.592a950.896 950.896 0 00-2.436-15.792 147.73 147.73 0 00-3.36-15.372c-1.4-5.096-3.458-9.212-6.174-12.348C35.402 4.34 32 2.772 27.912 2.772c-4.088 0-7.868 1.428-11.34 4.284-1.512 1.288-2.926 2.968-4.242 5.04-1.316 2.072-2.422 4.116-3.318 6.132-.896 2.016-1.764 4.438-2.604 7.266-.84 2.828-1.498 5.376-1.974 7.644s-.966 4.97-1.47 8.106-.882 5.726-1.134 7.77a983.42 983.42 0 00-.882 7.434 757.88 757.88 0 01-.756 6.384c1.624 1.176 3.444.952 5.46-.672.28-1.568.714-4.634 1.302-9.198.588-4.564 1.134-7.994 1.638-10.29 4.816-.504 10.276-.756 16.38-.756 6.104 0 12.208.112 18.312.336.28 1.624.714 4.998 1.302 10.122.588 5.124 1.498 9.086 2.73 11.886.448.112.896.168 1.344.168zM9.432 38.304c.616-5.656 2.128-11.816 4.536-18.48 1.344-3.584 3.164-6.58 5.46-8.988 2.296-2.408 4.676-3.612 7.14-3.612 2.464 0 4.536.77 6.216 2.31 1.68 1.54 3.052 3.682 4.116 6.426 1.12 2.744 2.002 5.306 2.646 7.686.644 2.38 1.274 5.138 1.89 8.274.616 3.136 1.036 5.124 1.26 5.964a257.303 257.303 0 00-16.38-.504 154.3 154.3 0 00-16.884.924zm55.188 24.36c.728 0 1.596-.252 2.604-.756 1.456-1.456 2.968-8.204 4.536-20.244.56-4.312 1.526-8.232 2.898-11.76 1.372-3.528 3.038-5.292 4.998-5.292 1.456 0 2.45 1.288 2.982 3.864.532 2.576.826 5.712.882 9.408.056 3.696.182 7.392.378 11.088.196 3.696.882 6.832 2.058 9.408 1.176 2.576 2.968 3.864 5.376 3.864 1.288 0 2.436-.532 3.444-1.596-2.128-.896-3.626-2.856-4.494-5.88-.868-3.024-1.316-6.356-1.344-9.996-.028-3.64-.098-7.224-.21-10.752-.112-3.528-.77-6.482-1.974-8.862s-3.122-3.57-5.754-3.57c-1.96 0-3.724.49-5.292 1.47-1.568.98-2.8 2.156-3.696 3.528-.896 1.372-1.708 3.206-2.436 5.502s-1.26 4.298-1.596 6.006a189.89 189.89 0 00-1.134 6.51c-.42 2.632-.77 4.536-1.05 5.712-.056-1.12-.098-5.404-.126-12.852-.028-7.448-.182-12.376-.462-14.784-.504-.168-1.176-.252-2.016-.252-.84 0-1.848.392-3.024 1.176.112 1.848.224 5.908.336 12.18.336 12.6 1.092 21.476 2.268 26.628.504.168 1.12.252 1.848.252zm51.072-.336c1.68 0 3.71-.546 6.09-1.638 2.38-1.092 3.57-2.226 3.57-3.402 0-.392-.266-.742-.798-1.05-.532-.308-1.148-.462-1.848-.462-.7 0-1.694.378-2.982 1.134-1.288.756-2.408 1.134-3.36 1.134-1.904 0-3.472-1.19-4.704-3.57-1.232-2.38-2.03-5.222-2.394-8.526-.364-3.304-.588-6.146-.672-8.526a174.23 174.23 0 01-.126-5.964c0-1.596.084-3.206.252-4.83.224-.056.672-.084 1.344-.084s1.778.126 3.318.378 2.8.378 3.78.378 1.834-.084 2.562-.252c1.568-.336 2.352-1.456 2.352-3.36 0-1.344-2.184-2.016-6.552-2.016l-6.048.252c-.504 0-.812-.028-.924-.084l.504-12.6c0-.84-.084-3.276-.252-7.308a6.443 6.443 0 00-1.554-.168c-.588 0-1.134.224-1.638.672-1.176 1.008-1.848 3.724-2.016 8.148-.056 1.68-.098 3.71-.126 6.09-.028 2.38-.126 4.326-.294 5.838-2.016.112-3.472.238-4.368.378a6.12 6.12 0 00-2.478.966c-.756.504-1.134 1.204-1.134 2.1.896 1.232 2.604 1.848 5.124 1.848 1.008 0 1.96-.084 2.856-.252.224 8.176.56 13.944 1.008 17.304 1.512 11.648 5.348 17.472 11.508 17.472zm28.812.672c5.432 0 9.912-1.932 13.44-5.796 3.528-3.864 5.292-8.582 5.292-14.154 0-5.572-1.61-10.542-4.83-14.91-3.22-4.368-7.518-6.552-12.894-6.552s-9.492 2.184-12.348 6.552c-2.8 4.368-4.2 10.164-4.2 17.388 0 5.544 1.232 9.842 3.696 12.894 2.464 3.052 6.412 4.578 11.844 4.578zm-.168-3.276c-1.848 0-3.444-.434-4.788-1.302-1.344-.868-2.352-2.044-3.024-3.528a19.364 19.364 0 01-1.428-4.536c-.28-1.54-.42-3.248-.42-5.124 0-1.876.182-3.906.546-6.09.364-2.184.91-4.368 1.638-6.552.784-2.24 1.932-4.06 3.444-5.46 1.512-1.4 3.276-2.1 5.292-2.1 3.36 0 6.202 2.058 8.526 6.174 2.324 4.116 3.486 8.358 3.486 12.726s-1.274 8.092-3.822 11.172-5.698 4.62-9.45 4.62zm31.5 2.94c.728 0 1.596-.252 2.604-.756 1.456-1.456 2.968-8.204 4.536-20.244.56-4.312 1.526-8.232 2.898-11.76 1.372-3.528 3.038-5.292 4.998-5.292 1.456 0 2.45 1.288 2.982 3.864.532 2.576.826 5.712.882 9.408.056 3.696.182 7.392.378 11.088.196 3.696.882 6.832 2.058 9.408 1.176 2.576 2.968 3.864 5.376 3.864 1.288 0 2.436-.532 3.444-1.596-2.128-.896-3.626-2.856-4.494-5.88-.868-3.024-1.316-6.356-1.344-9.996-.028-3.64-.098-7.224-.21-10.752-.112-3.528-.77-6.482-1.974-8.862s-3.122-3.57-5.754-3.57c-1.96 0-3.724.49-5.292 1.47-1.568.98-2.8 2.156-3.696 3.528-.896 1.372-1.708 3.206-2.436 5.502s-1.26 4.298-1.596 6.006a189.89 189.89 0 00-1.134 6.51c-.42 2.632-.77 4.536-1.05 5.712-.056-1.12-.098-5.404-.126-12.852-.028-7.448-.182-12.376-.462-14.784-.504-.168-1.176-.252-2.016-.252-.84 0-1.848.392-3.024 1.176.112 1.848.224 5.908.336 12.18.336 12.6 1.092 21.476 2.268 26.628.504.168 1.12.252 1.848.252zm38.556-50.988c1.344 0 2.408-.448 3.192-1.344a48.987 48.987 0 01-.252-4.872c0-1.568.028-2.996.084-4.284-.392-.56-1.26-.84-2.604-.84s-2.212.672-2.604 2.016c-.168.784-.266 1.47-.294 2.058a41.845 41.845 0 00-.042 1.974v1.26c0 2.688.84 4.032 2.52 4.032zm.042 50.484c.644 0 1.344-.35 2.1-1.05.756-.7 1.134-1.918 1.134-3.654l-.167-18.47-.001-.094c0-5.6.14-10.78.42-15.54-1.288-.616-2.212-.924-2.772-.924-.56 0-1.036.308-1.428.924-1.12 1.68-1.68 8.008-1.68 18.984 0 5.6.14 12.04.42 19.32.672.336 1.33.504 1.974.504zm28.014.84c5.432 0 9.912-1.932 13.44-5.796 3.528-3.864 5.292-8.582 5.292-14.154 0-5.572-1.61-10.542-4.83-14.91-3.22-4.368-7.518-6.552-12.894-6.552s-9.492 2.184-12.348 6.552c-2.8 4.368-4.2 10.164-4.2 17.388 0 5.544 1.232 9.842 3.696 12.894 2.464 3.052 6.412 4.578 11.844 4.578zm-.168-3.276c-1.848 0-3.444-.434-4.788-1.302-1.344-.868-2.352-2.044-3.024-3.528a19.364 19.364 0 01-1.428-4.536c-.28-1.54-.42-3.248-.42-5.124 0-1.876.182-3.906.546-6.09.364-2.184.91-4.368 1.638-6.552.784-2.24 1.932-4.06 3.444-5.46 1.512-1.4 3.276-2.1 5.292-2.1 3.36 0 6.202 2.058 8.526 6.174 2.324 4.116 3.486 8.358 3.486 12.726s-1.274 8.092-3.822 11.172-5.698 4.62-9.45 4.62zm67.872 4.788c11.76 0 17.64-.924 17.64-2.772 0-1.568-1.372-2.352-4.116-2.352l-17.64.336c-2.744 0-5.796-.112-9.156-.336-.336-5.152-.504-10.612-.504-16.38l.42-37.212c0-2.24-.756-3.36-2.268-3.36-.896 0-2.072.56-3.528 1.68l-.42 29.568v1.505c.01 12.66.15 21.847.42 27.559.952.616 3.668 1.064 8.148 1.344 4.48.28 8.148.42 11.004.42zm28.812-.84c2.296 0 4.312-.392 6.048-1.176 3.416-1.512 6.944-5.74 10.584-12.684.168.84.392 2.394.672 4.662s.728 4.158 1.344 5.67c.784 2.016 2.38 3.024 4.788 3.024 3.528 0 5.488-.98 5.88-2.94-.784-.672-1.764-.84-2.94-.504-.616.168-1.092.252-1.428.252-1.176 0-2.1-.56-2.772-1.68-1.12-1.68-1.68-4.956-1.68-9.828l.42-9.66c0-5.096-.644-9.268-1.932-12.516-1.512-3.808-4.564-5.712-9.156-5.712-3.192 0-6.132 1.61-8.82 4.83-2.688 3.22-4.732 7.168-6.132 11.844-1.4 4.676-2.1 9.142-2.1 13.398s.63 7.49 1.89 9.702c1.26 2.212 3.038 3.318 5.334 3.318zm2.688-4.032c-1.4 0-2.534-.756-3.402-2.268-.868-1.512-1.302-3.318-1.302-5.418s.196-4.508.588-7.224c.392-2.716.98-5.586 1.764-8.61.784-3.08 1.918-5.67 3.402-7.77 1.484-2.1 3.136-3.15 4.956-3.15 1.82 0 3.29.672 4.41 2.016 1.68 2.072 2.52 4.704 2.52 7.896 0 4.928-1.4 10.248-4.2 15.96-2.8 5.712-5.712 8.568-8.736 8.568zm40.53 21.42c6.076 0 10.696-1.974 13.86-5.922 3.164-3.948 4.746-9.24 4.746-15.876 0-6.636-.168-12.558-.504-17.766-.224-3.416-.672-6.104-1.344-8.064s-1.54-4.032-2.604-6.216c-1.96-4.144-5.488-6.216-10.584-6.216-3.472 0-6.468 1.372-8.988 4.116-2.52 2.744-4.34 6.034-5.46 9.87a41.895 41.895 0 00-1.68 11.802c0 4.032.826 7.63 2.478 10.794 1.652 3.164 4.242 4.746 7.77 4.746 3.528 0 6.692-1.498 9.492-4.494 2.8-2.996 4.956-6.79 6.468-11.382.168 5.376.252 8.484.252 9.324 0 5.656-.7 10.416-2.1 14.28-.84 2.184-2.128 3.878-3.864 5.082-1.736 1.204-3.92 1.806-6.552 1.806-2.632 0-5.11-.574-7.434-1.722-2.324-1.148-4.144-1.722-5.46-1.722-1.316 0-2.534.56-3.654 1.68 4.032 3.92 9.086 5.88 15.162 5.88zm-1.974-22.344c-1.792 0-3.15-1.344-4.074-4.032-.924-2.688-1.386-5.138-1.386-7.35 0-2.212.168-4.41.504-6.594.336-2.184.868-4.508 1.596-6.972.728-2.464 1.778-4.536 3.15-6.216 1.372-1.68 2.954-2.52 4.746-2.52 2.576 0 4.718 1.162 6.426 3.486 1.708 2.324 2.562 4.41 2.562 6.258 0 5.376-1.372 10.71-4.116 16.002-2.744 5.292-5.88 7.938-9.408 7.938zm43.596 4.368c6.16 0 10.668-3.5 13.524-10.5 2.016-5.096 3.024-10.192 3.024-15.288 0-1.96-.168-3.92-.504-5.88-1.064-7.056-3.304-10.584-6.72-10.584-1.176 0-2.016.168-2.52.504-.504.336-.686.868-.546 1.596.14.728.658 1.904 1.554 3.528 2.016 3.416 3.024 8.708 3.024 15.876 0 5.712-.896 10.192-2.688 13.44-1.512 2.632-3.514 3.948-6.006 3.948-2.492 0-4.634-1.428-6.426-4.284-3.08-4.872-4.62-11.396-4.62-19.572 0-5.432.728-9.52 2.184-12.264-.952-.392-1.778-.644-2.478-.756-.7-.112-1.33.112-1.89.672a9.642 9.642 0 00-1.428 1.806c-.392.644-.868 2.03-1.428 4.158-.56 2.128-.84 5.208-.84 9.24 0 9.24 2.156 16.156 6.468 20.748 2.296 2.408 5.068 3.612 8.316 3.612zm29.232-.42c.728 0 1.596-.252 2.604-.756 1.456-1.456 2.968-8.204 4.536-20.244.56-4.312 1.526-8.232 2.898-11.76 1.372-3.528 3.038-5.292 4.998-5.292 1.456 0 2.45 1.288 2.982 3.864.532 2.576.826 5.712.882 9.408.056 3.696.182 7.392.378 11.088.196 3.696.882 6.832 2.058 9.408 1.176 2.576 2.968 3.864 5.376 3.864 1.288 0 2.436-.532 3.444-1.596-2.128-.896-3.626-2.856-4.494-5.88-.868-3.024-1.316-6.356-1.344-9.996-.028-3.64-.098-7.224-.21-10.752-.112-3.528-.77-6.482-1.974-8.862s-3.122-3.57-5.754-3.57c-1.96 0-3.724.49-5.292 1.47-1.568.98-2.8 2.156-3.696 3.528-.896 1.372-1.708 3.206-2.436 5.502s-1.26 4.298-1.596 6.006a189.89 189.89 0 00-1.134 6.51c-.42 2.632-.77 4.536-1.05 5.712-.056-1.12-.098-5.404-.126-12.852-.028-7.448-.182-12.376-.462-14.784-.504-.168-1.176-.252-2.016-.252-.84 0-1.848.392-3.024 1.176.112 1.848.224 5.908.336 12.18.336 12.6 1.092 21.476 2.268 26.628.504.168 1.12.252 1.848.252zm41.244 1.008c2.296 0 4.312-.392 6.048-1.176 3.416-1.512 6.944-5.74 10.584-12.684.168.84.392 2.394.672 4.662s.728 4.158 1.344 5.67c.784 2.016 2.38 3.024 4.788 3.024 3.528 0 5.488-.98 5.88-2.94-.784-.672-1.764-.84-2.94-.504-.616.168-1.092.252-1.428.252-1.176 0-2.1-.56-2.772-1.68-1.12-1.68-1.68-4.956-1.68-9.828l.42-9.66c0-5.096-.644-9.268-1.932-12.516-1.512-3.808-4.564-5.712-9.156-5.712-3.192 0-6.132 1.61-8.82 4.83-2.688 3.22-4.732 7.168-6.132 11.844-1.4 4.676-2.1 9.142-2.1 13.398s.63 7.49 1.89 9.702c1.26 2.212 3.038 3.318 5.334 3.318zm2.688-4.032c-1.4 0-2.534-.756-3.402-2.268-.868-1.512-1.302-3.318-1.302-5.418s.196-4.508.588-7.224c.392-2.716.98-5.586 1.764-8.61.784-3.08 1.918-5.67 3.402-7.77 1.484-2.1 3.136-3.15 4.956-3.15 1.82 0 3.29.672 4.41 2.016 1.68 2.072 2.52 4.704 2.52 7.896 0 4.928-1.4 10.248-4.2 15.96-2.8 5.712-5.712 8.568-8.736 8.568z" fill="#333" fill-rule="nonzero"/></svg>
