<svg width="115" height="115" xmlns="http://www.w3.org/2000/svg"><g fill="none" fill-rule="evenodd"><circle stroke="#FCA311" stroke-width="2" fill="#14213D" cx="57.5" cy="57.5" r="57"/><path d="M48.487 31c9.096 0 16.042 3.426 20.577 10.228 4.35 6.525 6.474 15.969 6.345 28.499v.112c.015 3.208.651 5.485 1.807 6.884 1.09 1.318 2.77 1.996 5.239 1.996 2.468 0 4.15-.678 5.239-1.996 1.17-1.416 1.808-3.732 1.808-7.003H94l-.001.259c-.08 8.495-4.075 13.24-11.544 13.24-7.544 0-11.58-4.841-11.58-13.499.164-11.881-1.738-20.28-5.546-25.992-3.668-5.501-9.194-8.227-16.842-8.227-4.994 0-9.116 1.626-12.446 4.958.338-.03.683-.045 1.033-.045 5.737 0 9.917 4.088 12.499 11.664 2.375 6.968 3.552 17.191 3.575 30.73v.411h-4.506c0-5.521-.195-10.46-.58-14.812-2.547 2.404-6.258 3.622-10.988 3.622-4.67 0-8.346-1.188-10.89-3.53-.339 3.377-.554 7.014-.644 10.908-.02 1.11-.03 2.25-.033 3.414v.398H21c0-13.743 1.177-24.103 3.576-31.141.306-.899.635-1.749.986-2.548a42.984 42.984 0 012.054-4.805C32.193 35.665 39.239 31 48.487 31zM37.074 44.92c-3.01 0-5.461 2.002-7.379 6.395-.71 2.008-1.332 4.208-1.864 6.598-.19 1.35-.286 2.576-.286 3.679 0 .956.402 1.988 1.24 3.092 1.68 1.875 4.38 2.79 8.29 2.79 3.904 0 6.602-.913 8.283-2.782.842-1.107 1.245-2.142 1.245-3.1 0-1.837-.263-4.015-.792-6.53l.054.26a36.8 36.8 0 00-.558-1.79c-2.025-5.942-4.756-8.613-8.233-8.613zm24.334 12.19a4.53 4.53 0 110 9.058 4.53 4.53 0 010-9.059z" fill="#FFF" fill-rule="nonzero"/></g></svg>
