<svg xmlns="http://www.w3.org/2000/svg" viewBox="0 0 512 512"><circle cx="256" cy="256" r="256" fill="#273b7a"/><path d="M316.709 504.739C417.097 480.321 494.313 396.731 509.33 292.99L358.562 142.222l-101.136 29.372v72.039l-56.625-56.625-49.517 46.146 62.383 62.383-13.953 11.147 64.343 64.343c-19.82 12.593-48.345 30.922-46.497 30.922l15.672.583-3.103 15.625 86.58 86.582z" fill="#121149"/><path d="M202.045 139.969s-21.501-13.231-42.01-2.646c-20.509 10.585-36.717 62.517-28.779 74.095 7.939 11.578 59.54 62.517 73.764 58.88 14.224-3.637 14.224-21.17 14.224-21.17l-17.199-109.159z" fill="#d0d1d3"/><path d="M309.955 139.969s21.501-13.231 42.01-2.646 36.717 62.517 28.779 74.095c-7.939 11.578-59.54 62.517-73.764 58.88-14.224-3.637-14.224-21.17-14.224-21.17l17.199-109.159z" fill="#a6a8aa"/><path d="M234.775 263.02s0 31.094-35.063 43.663c0 0 17.861-30.763 17.532-59.209l17.531 15.546z" fill="#fff"/><path d="M277.225 263.02s0 31.094 35.063 43.663c0 0-17.863-30.763-17.532-59.209l-17.531 15.546z" fill="#d0d1d3"/><path d="M312.248 138.206C290.952 115.271 256 126.738 256 126.738s-34.952-11.467-56.248 11.467c-21.295 22.935 5.323 65.274 8.564 74.095 3.241 8.821 6.018 15.215 6.482 31.094.372 12.748 5.685 21.22 18.303 24.297 1.114 12.971 4.027 31.115 11.581 45.278 13.231 24.809 25.453 46.64-6.128 74.095 0 0-11.073 7.939-20.995 14.886 0 0 10.916 1.984 12.569 16.208 0 0 53.257-30.432 56.563-61.195 2.817-26.198-14.503-58.873-12.559-88.424 16.056-2.001 22.654-10.899 23.069-25.145.464-15.877 3.241-22.273 6.482-31.094 3.241-8.821 29.86-51.161 8.565-74.094z" fill="#a6a8aa"/><path d="M312.248 138.206c-19.72-21.239-51.131-12.981-55.672-11.642V339.02c2.289 7.833 2.805 15.681 0 23.849v36.714c13.912-11.505 28.439-27.015 30.117-42.62 2.817-26.2-14.503-58.873-12.559-88.424 16.056-2.001 22.654-10.899 23.069-25.145.464-15.877 3.241-22.273 6.482-31.094 3.239-8.821 29.858-51.161 8.563-74.094z" fill="#808183"/><g fill="#272525"><circle cx="224.418" cy="206.455" r="4.606"/><circle cx="287.582" cy="206.455" r="4.606"/></g><path d="M255.519 126.738s-24.94-8.18-45.521 3.103l45.521 47.507 46.483-46.942c-20.757-12.089-46.483-3.668-46.483-3.668z" fill="#c92f00"/><path d="M256.576 126.424v49.855l45.428-45.877c-18.282-10.642-40.406-5.384-45.428-3.978z" fill="#930000"/><path d="M255.324 126.738s-15.798-5.168-32.621-1.596l32.904 32.359 33.692-32.063c-17.322-4.158-33.975 1.3-33.975 1.3z" fill="#eaa22f"/><path d="M256.576 126.373v30.206l32.721-31.141c-14.551-3.494-28.592-.208-32.721.935z" fill="#e09112"/></svg>